# xmcd
#
# Track frame offsets:
#	150
#	26094
#	45426
#	62974
#	78601
#	121885
#	142506
#	162131
#	192062
#	209296
#	228437
#
# Disc length: 3488 seconds
#
# Revision: 0
# Processed by: cddbd v1.5.1PL0 Copyright (c) Steve Scherf et al.
# Submitted via: dBpowerAMP V4.0
#
DISCID=890d9e0b
DTITLE=JP Stingray - Road To Oblivion
DYEAR=2002
DGENRE=Blues
TTITLE0=Jake the Snake and Johnny the Fox
TTITLE1=Road To Oblivion
TTITLE2=Deep Down in Texas
TTITLE3=Can't Leave the Booze Alone
TTITLE4=Something Brewing
TTITLE5=Good, bad, but I like it
TTITLE6=The blues comes calling tonite
TTITLE7=Paradise lost (Instrumental)
TTITLE8=Night of sin
TTITLE9=King of luck
TTITLE10=You're my foundation
EXTD=
EXTT0=
EXTT1=
EXTT2=
EXTT3=
EXTT4=
EXTT5=
EXTT6=
EXTT7=
EXTT8=
EXTT9=
EXTT10=
PLAYORDER=
